<svg xmlns="http://www.w3.org/2000/svg" width="49.62" height="49.62" viewBox="0 0 49.62 49.62">
  <g id="vuesax_bold_book" data-name="vuesax/bold/book" transform="translate(-492 -188)">
    <path id="Vector" d="M35.148,2.068V7.236a7.244,7.244,0,0,1-7.236,7.236H7.236A7.244,7.244,0,0,1,0,7.236V5.892A5.9,5.9,0,0,1,5.892,0H33.08A2.074,2.074,0,0,1,35.148,2.068Z" transform="translate(499.236 219.013)" fill="#fff"/>
    <path id="Vector-2" data-name="Vector" d="M24.81,0H10.338C2.068,0,0,2.068,0,10.338V26.009a8.9,8.9,0,0,1,5.892-2.233H33.08a2.074,2.074,0,0,0,2.068-2.068V10.338C35.148,2.068,33.08,0,24.81,0ZM19.641,18.091H9.3a1.551,1.551,0,0,1,0-3.1H19.641a1.551,1.551,0,0,1,0,3.1Zm6.2-7.236H9.3a1.551,1.551,0,0,1,0-3.1h16.54a1.551,1.551,0,0,1,0,3.1Z" transform="translate(499.236 192.135)" fill="#fff"/>
    <path id="Vector-3" data-name="Vector" d="M0,0H49.62V49.62H0Z" transform="translate(541.62 237.62) rotate(180)" fill="none" opacity="0"/>
  </g>
</svg>
