<svg xmlns="http://www.w3.org/2000/svg" width="47.968" height="48" viewBox="0 0 47.968 48">
  <path id="Vector" d="M34.05,0H13.942C5.207,0,0,5.208,0,13.944V34.032C0,42.792,5.207,48,13.942,48H34.026c8.735,0,13.942-5.208,13.942-13.944V13.944C47.992,5.208,42.785,0,34.05,0Zm-15,27.048a16.983,16.983,0,0,1-6.527,5.76,1.833,1.833,0,0,1-.792.192,1.794,1.794,0,0,1-.792-3.408,13.205,13.205,0,0,0,5.135-4.536,1.883,1.883,0,0,0,0-2.112,13.55,13.55,0,0,0-5.135-4.536,1.792,1.792,0,1,1,1.584-3.216,16.983,16.983,0,0,1,6.527,5.76A5.432,5.432,0,0,1,19.053,27.048ZM35.994,33H26.4a1.8,1.8,0,0,1,0-3.6h9.6a1.8,1.8,0,0,1,0,3.6Z" fill="#27a1ff"/>
</svg>
