<svg id="vuesax_bold_note-2" data-name="vuesax/bold/note-2" xmlns="http://www.w3.org/2000/svg" width="50.62" height="50.62" viewBox="0 0 50.62 50.62">
  <path id="Vector" d="M24.391,31.089c-.548.232-1.139.443-1.772.654l-3.332,1.1c-8.373,2.7-12.782.443-15.5-7.931l-2.7-8.331C-1.616,8.2.62,3.775,8.994,1.076L12.242,0a26.449,26.449,0,0,0-1.055,3.48L9.12,12.318C6.8,22.252,10.2,27.736,20.13,30.1Z" transform="translate(4.189 11.432)" fill="#fff"/>
  <path id="Vector-2" data-name="Vector" d="M21.517,1.494,17.994.672C10.95-.994,6.752.377,4.285,5.481a22.092,22.092,0,0,0-1.561,4.64L.657,18.958c-2.067,8.816.654,13.161,9.449,15.249l3.543.844a22.175,22.175,0,0,0,3.417.569c6.581.633,10.082-2.447,11.854-10.061l2.067-8.816C33.054,7.927,30.354,3.561,21.517,1.494ZM17.551,22.839a1.577,1.577,0,0,1-1.54,1.181,2.882,2.882,0,0,1-.4-.042L9.473,22.417a1.578,1.578,0,0,1,.78-3.058l6.138,1.561A1.577,1.577,0,0,1,17.551,22.839Zm6.18-7.129a1.577,1.577,0,0,1-1.54,1.181,2.882,2.882,0,0,1-.4-.042L11.561,14.255a1.578,1.578,0,0,1,.78-3.058l10.23,2.594A1.558,1.558,0,0,1,23.731,15.71Z" transform="translate(14.698 5.276)" fill="#fff"/>
  <path id="Vector-3" data-name="Vector" d="M0,0H50.62V50.62H0Z" transform="translate(50.62 50.62) rotate(180)" fill="none" opacity="0"/>
</svg>
